<svg xmlns="http://www.w3.org/2000/svg" viewBox="0 0 64 64"><defs><style>.cls-1,.cls-7{fill:none;}.cls-1{stroke:#999;}.cls-1,.cls-2,.cls-4,.cls-6,.cls-7{stroke-linecap:round;stroke-linejoin:round;stroke-width:2px;}.cls-2{fill:#ffd578;}.cls-2,.cls-4,.cls-6,.cls-7{stroke:#54596e;}.cls-3,.cls-5{fill:#54596e;}.cls-3{opacity:0.15;}.cls-4{fill:#f4a14e;}.cls-6{fill:#a1b7ff;}</style></defs><title>airbaloon</title><g id="airbaloon"><line class="cls-1" x1="25" y1="46" x2="27" y2="54"/><line class="cls-1" x1="39" y1="46" x2="37" y2="54"/><path class="cls-2" d="M43.92,46C49.41,40,53,30.82,53,23.49A21.25,21.25,0,0,0,32,2,21.25,21.25,0,0,0,11,23.49C11,30.82,14.59,40,20.08,46Z"/><path class="cls-3" d="M43.92,41H20.08a36.9,36.9,0,0,1-8.94-19.94c-.08.8-.14,1.61-.14,2.43C11,30.82,14.59,40,20.08,46H43.92C49.41,40,53,30.82,53,23.49c0-.82-.06-1.63-.14-2.43A36.9,36.9,0,0,1,43.92,41Z"/><path class="cls-4" d="M38.25,46C41.12,40,43,30.82,43,23.49,43,11.62,38.08,2,32,2S21,11.62,21,23.49C21,30.82,22.88,40,25.75,46Z"/><ellipse class="cls-5" cx="32" cy="34" rx="3" ry="5"/><circle class="cls-5" cx="16" cy="23" r="2"/><circle class="cls-5" cx="48" cy="23" r="2"/><polygon class="cls-6" points="37 63 27 63 26 54 38 54 37 63"/><line class="cls-7" x1="24" y1="54" x2="40" y2="54"/></g></svg>