<svg xmlns="http://www.w3.org/2000/svg" viewBox="0 0 64 64"><defs><style>.cls-1{fill:#9af43b;}.cls-1,.cls-3,.cls-5{stroke:#54596e;stroke-linecap:round;stroke-linejoin:round;stroke-width:2px;}.cls-2,.cls-4{fill:#54596e;}.cls-2{opacity:0.15;}.cls-3{fill:#fff35f;}.cls-5{fill:#fff;}</style></defs><title>arcade</title><g id="arcade"><path class="cls-1" d="M62,32C62,20.4,49,7,33,7S4,20.4,4,32,17,53,33,53,62,43.6,62,32Z"/><path class="cls-2" d="M33,34c-10.64,0-20,3.11-25.61,7.86C12.27,48.49,21.9,53,33,53s20.73-4.51,25.61-11.14C53,37.11,43.64,34,33,34Z"/><path class="cls-3" d="M16,51.19C16,55,18.59,58,21.79,58H44.21c3.2,0,5.79-3,5.79-6.81V41.31A41.78,41.78,0,0,0,33,38a41.78,41.78,0,0,0-17,3.31Z"/><rect class="cls-4" x="26" y="42" width="3" height="9" rx="1.5" ry="1.5"/><rect class="cls-4" x="37" y="42" width="3" height="9" rx="1.5" ry="1.5" transform="translate(77 93) rotate(180)"/><circle class="cls-5" cx="33" cy="20" r="9"/><path class="cls-5" d="M8.83,19.15A21.81,21.81,0,0,0,4,32a15.58,15.58,0,0,0,.28,2.9A9,9,0,0,0,8.83,19.15Z"/><path class="cls-5" d="M57.17,19.15A21.81,21.81,0,0,1,62,32a15.58,15.58,0,0,1-.28,2.9,9,9,0,0,1-4.55-15.75Z"/></g></svg>