<svg xmlns="http://www.w3.org/2000/svg" viewBox="0 0 64 64"><defs><style>.cls-1{fill:#ffb8f2;stroke-linecap:round;stroke-linejoin:round;}.cls-1,.cls-4{stroke:#54596e;stroke-width:2px;}.cls-2{opacity:0.2;}.cls-3,.cls-4{fill:#54596e;}.cls-4{stroke-miterlimit:10;}</style></defs><title>bean</title><g id="bean"><path class="cls-1" d="M55.31,10.25C50.5,2.5,44.48.39,38.66,3.47a5.43,5.43,0,0,0-3.21,4.61c0,.43-.05.86-.1,1.29a26.49,26.49,0,0,1-2.28,8.3A6.47,6.47,0,0,1,35,19c3.11,3.11,2.55,8.72-1.25,12.53s-9.42,4.36-12.53,1.25A6.57,6.57,0,0,1,19.94,31a26.49,26.49,0,0,1-8,2.33l-.61.07a8.57,8.57,0,0,0-5.9,13.83l.12.15C19.5,64.5,38,58.48,50.48,46,58.9,37.57,60.91,19.27,55.31,10.25Z"/><g class="cls-2"><path class="cls-3" d="M50.48,41C38,53.48,19.5,59.5,5.58,42.33l-.12-.15A8.17,8.17,0,0,1,4,39.41a8.29,8.29,0,0,0,1.47,7.77l.12.15C19.5,64.5,38,58.48,50.48,46c5.75-5.75,8.51-16.12,7.9-25C57.88,28.51,55.18,36.28,50.48,41Z"/></g><path class="cls-4" d="M33.75,31.53C37.55,27.72,38.11,22.11,35,19a6.47,6.47,0,0,0-1.93-1.33A27.21,27.21,0,0,1,19.94,31a6.57,6.57,0,0,0,1.28,1.83C24.33,35.89,29.94,35.33,33.75,31.53Z"/><circle class="cls-3" cx="41" cy="13" r="2"/><path class="cls-1" d="M46,12h0Z"/><line class="cls-1" x1="23" y1="21" x2="17.5" y2="15.5"/><line class="cls-1" x1="26" y1="18" x2="26" y2="14"/><line class="cls-1" x1="16" y1="24" x2="20" y2="24"/></g></svg>