<svg xmlns="http://www.w3.org/2000/svg" viewBox="0 0 64 64"><defs><style>.cls-1{fill:#fff;}.cls-1,.cls-2,.cls-3{stroke:#54596e;stroke-linecap:round;stroke-linejoin:round;stroke-width:2px;}.cls-2{fill:#ededed;}.cls-3{fill:none;}</style></defs><title>bones</title><g id="bones"><path class="cls-1" d="M21.87,49.29,34.06,37.1,49.79,21.37A5,5,0,1,0,52.6,12.9a5,5,0,1,0-8.47,2.81L25.4,34.44l-9.19,9.19A5,5,0,1,0,13.4,52.1a5,5,0,1,0,8.47-2.81Z"/><path class="cls-2" d="M49.79,43.63,37.6,31.44,21.87,15.71A5,5,0,1,0,13.4,12.9a5,5,0,1,0,2.81,8.47L34.94,40.1l9.19,9.19A5,5,0,1,0,52.6,52.1a5,5,0,1,0-2.81-8.47Z"/><line class="cls-3" x1="45" y1="21" x2="42.5" y2="23.5"/><line class="cls-3" x1="22" y1="42" x2="18" y2="46"/><line class="cls-3" x1="42" y1="41" x2="43.5" y2="42.5"/><line class="cls-3" x1="32" y1="33" x2="33.5" y2="34.5"/><line class="cls-3" x1="30" y1="31" x2="29" y2="30"/><line class="cls-3" x1="24" y1="21" x2="21" y2="18"/></g></svg>