<svg xmlns="http://www.w3.org/2000/svg" viewBox="0 0 64 64"><defs><style>.cls-1{fill:#ffd578;}.cls-1,.cls-2,.cls-3,.cls-4,.cls-5,.cls-7{stroke:#54596e;stroke-linecap:round;stroke-linejoin:round;stroke-width:2px;}.cls-2{fill:#55a6ff;}.cls-3{fill:#a1b7ff;}.cls-4{fill:#999;}.cls-5{fill:none;}.cls-6{fill:#54596e;}.cls-7{fill:#fff35f;}</style></defs><title>cop-male</title><g id="cop-male"><rect class="cls-1" x="27" y="42" width="10" height="12"/><path class="cls-2" d="M50.26,47H43L32,55,21,47h-6.3C9.91,47,6,50.35,6,54.49V63H58V53.63C58,50,54.54,47,50.26,47Z"/><polygon class="cls-3" points="23 48.43 23 63 41 63 41 48.43 32 55 23 48.43"/><polygon class="cls-3" points="27 55 22 57 20 47 27 47 27 55"/><polygon class="cls-3" points="37 55 42 57 44 47 37 47 37 55"/><polygon class="cls-4" points="29 63.01 35 63.01 33.66 54 30.33 54 29 63.01"/><circle class="cls-1" cx="14" cy="27" r="4"/><circle class="cls-1" cx="50" cy="27" r="4"/><path class="cls-1" d="M38,6.11C37.85,9.37,31.65,12,24,12a31.35,31.35,0,0,1-5.38-.46A16.91,16.91,0,0,0,15,22v9a17,17,0,0,0,34,0V22A17,17,0,0,0,38,6.11Z"/><polyline class="cls-5" points="27 37 29 38 35 38 37 37"/><circle class="cls-6" cx="23.5" cy="27.5" r="1.5"/><circle class="cls-6" cx="40.5" cy="27.5" r="1.5"/><path class="cls-2" d="M13,19c0,3.31,8.51,6,19,6s19-2.69,19-6Z"/><rect class="cls-3" x="13" y="16" width="38" height="3"/><path class="cls-2" d="M25.41,2,10,7.5,13,16H51l3-8.5L38.59,2A23.27,23.27,0,0,0,25.41,2Z"/><path class="cls-7" d="M29,5h7a0,0,0,0,1,0,0V9.5A3.5,3.5,0,0,1,32.5,13h0A3.5,3.5,0,0,1,29,9.5V5a0,0,0,0,1,0,0Z"/></g></svg>