<svg xmlns="http://www.w3.org/2000/svg" viewBox="0 0 64 64"><defs><style>.cls-1{fill:#61c5a8;}.cls-1,.cls-3,.cls-4,.cls-5{stroke:#54596e;stroke-linecap:round;stroke-linejoin:round;stroke-width:2px;}.cls-2,.cls-6{fill:#54596e;}.cls-2{opacity:0.2;}.cls-3{fill:#9af43b;}.cls-4{fill:#adf2a2;}.cls-5{fill:none;}</style></defs><title>cucumber</title><g id="cucumber"><path class="cls-1" d="M35.84,52.76C54.78,33.82,64.76,13.08,58.12,6.44S30.74,9.77,11.8,28.71Z"/><path class="cls-2" d="M36.2,46.75,37.6,51A118.83,118.83,0,0,0,52.13,32.84a20.68,20.68,0,0,1-4.62,2.59c-2.12.71-6.36,5-7.07,7.07S36.2,46.75,36.2,46.75Z"/><path class="cls-2" d="M18,28.52l-4.22-1.4A120.09,120.09,0,0,1,31.88,12.58a20.93,20.93,0,0,0-2.59,4.63c-.71,2.12-4.95,6.36-7.07,7.07S18,28.52,18,28.52Z"/><path class="cls-2" d="M37.64,30.52c-5,3.33-6.63,9.69-6.7,10a2.5,2.5,0,0,0,4.85,1.22c0-.05,1.28-4.79,4.62-7a16.39,16.39,0,0,1,3.12-1.61c2.21-.9,3.75-1.77,4.94-5.33s5.47-6.16,7.23-7a10.76,10.76,0,0,0,3.81-3.57c.85-3.43.9-6.34,0-8.52a29.48,29.48,0,0,0-3,4c-1,1.61-2,3.12-3.09,3.65-2.88,1.44-8,4.64-9.73,9.93-.56,1.66-.67,1.7-2.1,2.29A20.78,20.78,0,0,0,37.64,30.52Z"/><path class="cls-2" d="M50.13,4.54c-.23.33-.44.65-.65,1-1,1.61-2,3.12-3.09,3.64-2.88,1.45-8,4.65-9.74,9.94-.55,1.66-.67,1.7-2.09,2.29a20.78,20.78,0,0,0-4,2.07c-5,3.33-6.63,9.69-6.7,10a2.5,2.5,0,1,0,4.85,1.21s1.28-4.78,4.62-7A15.82,15.82,0,0,1,36.46,26c2.21-.9,3.75-1.77,4.94-5.33,1.23-3.71,5.47-6.16,7.23-7,2.25-1.13,3.67-3.29,5-5.38A25.65,25.65,0,0,1,56,5.06,11.49,11.49,0,0,0,50.13,4.54Z"/><ellipse class="cls-3" cx="24.18" cy="40.38" rx="10" ry="17" transform="translate(-21.47 28.92) rotate(-45)"/><ellipse class="cls-4" cx="19.93" cy="48.87" rx="10" ry="17" transform="translate(-32.43 55.47) rotate(-75)"/><path class="cls-5" d="M22.34,53.9a7,7,0,0,0-4-3.76,7.06,7.06,0,0,0-5.44-.22"/><circle class="cls-6" cx="26.5" cy="36.5" r="1.5"/><circle class="cls-6" cx="24.5" cy="46.5" r="1.5"/><circle class="cls-6" cx="17.5" cy="34.5" r="1.5"/><circle class="cls-6" cx="16.5" cy="43.5" r="1.5"/></g></svg>