<svg xmlns="http://www.w3.org/2000/svg" viewBox="0 0 64 64"><defs><style>.cls-1,.cls-6{fill:#fff35f;}.cls-1,.cls-3,.cls-4,.cls-5{stroke:#54596e;stroke-linecap:round;stroke-linejoin:round;stroke-width:2px;}.cls-2{fill:#54596e;opacity:0.15;}.cls-3{fill:#61c5a8;}.cls-4{fill:#bfad88;}.cls-5{fill:#ffd578;}.cls-6,.cls-7{stroke:#55a6ff;stroke-miterlimit:10;stroke-width:4px;}.cls-7{fill:none;}</style></defs><title>facebook</title><g id="facebook"><path class="cls-1" d="M43.83,7H5.17A3.17,3.17,0,0,0,2,10.17V37.83A3.17,3.17,0,0,0,5.17,41h22.5L35,48V41h8.83A3.17,3.17,0,0,0,47,37.83V10.17A3.17,3.17,0,0,0,43.83,7Z"/><path class="cls-2" d="M43.83,38H5.17A3.17,3.17,0,0,1,2,34.83v3A3.17,3.17,0,0,0,5.17,41H28l7,7V41h8.83A3.17,3.17,0,0,0,47,37.83v-3A3.17,3.17,0,0,1,43.83,38Z"/><path class="cls-3" d="M58.63,57H52.5V52h-5v5H41.87C39.46,57,37,58.68,37,60.74V64H63V60.32C63,58.48,60.77,57,58.63,57Z"/><path class="cls-4" d="M59,48.5l.5-6.1A7.18,7.18,0,0,0,52.56,35H47.44a7.18,7.18,0,0,0-6.94,7.4l.5,6.1"/><path class="cls-5" d="M46.68,43.94c-5,0-5.68-4.33-5.68.49v4a11.83,11.83,0,0,0,2.76,7A8.23,8.23,0,0,0,50,58a8.23,8.23,0,0,0,6.24-2.5,11.83,11.83,0,0,0,2.76-7v-4C59,39.61,51.65,43.94,46.68,43.94Z"/><path class="cls-6" d="M24,34V17.28A3.28,3.28,0,0,1,27.28,14H29"/><line class="cls-7" x1="19" y1="22" x2="29" y2="22"/></g></svg>