<svg xmlns="http://www.w3.org/2000/svg" viewBox="0 0 64 64"><defs><style>.cls-1,.cls-3,.cls-6{fill:#54596e;}.cls-1{opacity:0.1;}.cls-2{fill:#adf2a2;}.cls-2,.cls-3,.cls-5{stroke:#54596e;stroke-linecap:round;stroke-linejoin:round;stroke-width:2px;}.cls-4{fill:#fff;}.cls-5{fill:none;}</style></defs><title>fear</title><g id="fear"><ellipse class="cls-1" cx="32" cy="59" rx="18" ry="3"/><path class="cls-2" d="M60,29C60,13.5,47.46,2,32,2S4,13.5,4,29,16.54,58,32,58,60,44.43,60,29Z"/><path class="cls-1" d="M32,50C18.28,50,7,38.91,5.23,25.52A26.42,26.42,0,0,0,5,29C5,43.91,17.09,57,32,57S59,43.91,59,29a26.42,26.42,0,0,0-.23-3.48C57.05,38.91,45.72,50,32,50Z"/><path class="cls-3" d="M48.83,39.15A2.13,2.13,0,0,0,50.74,36a21.46,21.46,0,0,0-37.44-.08,2.13,2.13,0,0,0,1.9,3.14l13.66-1.36a31.38,31.38,0,0,1,6.28,0Z"/><path class="cls-4" d="M24,40.5a2.5,2.5,0,0,1-5,0c0-1.38,2-4.5,2.5-4.5S24,39.12,24,40.5Z"/><path class="cls-4" d="M14,30.5a2.5,2.5,0,0,1-5,0c0-1.38,2-4.5,2.5-4.5S14,29.12,14,30.5Z"/><path class="cls-4" d="M57,27.5a2.5,2.5,0,0,1-5,0c0-1.38,2-4.5,2.5-4.5S57,26.12,57,27.5Z"/><path class="cls-4" d="M29,9.5a2.5,2.5,0,0,1-5,0C24,8.12,26,5,26.5,5S29,8.12,29,9.5Z"/><path class="cls-4" d="M12,21.5a2.5,2.5,0,0,1-5,0C7,20.12,9,17,9.5,17S12,20.12,12,21.5Z"/><path class="cls-5" d="M23,12a7,7,0,0,0-7,7"/><path class="cls-5" d="M41,12a7,7,0,0,1,7,7"/><circle class="cls-6" cx="22" cy="18" r="3"/><circle class="cls-6" cx="42" cy="18" r="3"/></g></svg>