<svg xmlns="http://www.w3.org/2000/svg" viewBox="0 0 64 64"><defs><style>.cls-1{fill:#9af43b;}.cls-1,.cls-2,.cls-4,.cls-5{stroke:#54596e;stroke-linecap:round;stroke-linejoin:round;stroke-width:2px;}.cls-2{fill:#999;}.cls-3,.cls-6{fill:#54596e;}.cls-3{opacity:0.2;}.cls-4{fill:#fff;}.cls-5{fill:none;}</style></defs><title>grave</title><g id="grave"><path class="cls-1" d="M15,37a7,7,0,0,0-7,7,6.53,6.53,0,0,0,.08,1H8a7,7,0,1,0,7,7,6.53,6.53,0,0,0-.08-1H15a7,7,0,0,0,0-14Z"/><path class="cls-1" d="M49,37a7,7,0,0,1,7,7,6.53,6.53,0,0,1-.08,1H56a7,7,0,1,1-7,7,6.53,6.53,0,0,1,.08-1H49a7,7,0,0,1,0-14Z"/><path class="cls-2" d="M11.3,51H51.7A4.3,4.3,0,0,1,56,55.3V59a0,0,0,0,1,0,0H7a0,0,0,0,1,0,0V55.3A4.3,4.3,0,0,1,11.3,51Z"/><path class="cls-3" d="M51.7,51h-6A4.31,4.31,0,0,1,50,55.3V59h6V55.3A4.31,4.31,0,0,0,51.7,51Z"/><path class="cls-4" d="M43,14c0-.33,0-.66,0-1a11,11,0,0,0-22,0c0,.34,0,.67.05,1H16.22A2.23,2.23,0,0,0,14,16.22V51H50V16.22A2.23,2.23,0,0,0,47.78,14Z"/><path class="cls-3" d="M47.78,14H43c0-.33,0-.66,0-1A11,11,0,0,0,32,2a10.83,10.83,0,0,0-2.5.3A11,11,0,0,1,38,13c0,.34,0,.67,0,1h4.83A2.23,2.23,0,0,1,45,16.22V51h5V16.22A2.23,2.23,0,0,0,47.78,14Z"/><line class="cls-5" x1="20" y1="40" x2="20" y2="45"/><line class="cls-5" x1="34" y1="40" x2="34" y2="45"/><rect class="cls-5" x="20" y="35" width="6" height="5"/><rect class="cls-5" x="34" y="35" width="6" height="5"/><line class="cls-5" x1="26" y1="45" x2="24" y2="40"/><line class="cls-5" x1="30" y1="35" x2="30" y2="45"/><circle class="cls-6" cx="22.5" cy="19.5" r="1.5"/><circle class="cls-6" cx="37.5" cy="19.5" r="1.5"/><path class="cls-5" d="M26,28v-.5A3.5,3.5,0,0,1,29.5,24h0A3.5,3.5,0,0,1,33,27.5V28"/></g></svg>