<svg xmlns="http://www.w3.org/2000/svg" viewBox="0 0 64 64"><defs><style>.cls-1{fill:#ffb8f2;}.cls-1,.cls-3,.cls-4,.cls-7{stroke:#54596e;stroke-linecap:round;stroke-linejoin:round;stroke-width:2px;}.cls-2,.cls-4,.cls-5{fill:#54596e;}.cls-2{opacity:0.2;}.cls-3{fill:#55a6ff;}.cls-6{fill:#ff927d;}.cls-7{fill:#d8d8d8;}</style></defs><title>link</title><g id="link"><path class="cls-1" d="M28,5h0a2,2,0,0,0-2-2H16a2,2,0,0,0-2,2V33a2,2,0,0,0,2,2H51a2,2,0,0,0,2-2V9a2,2,0,0,0-2-2H30A2,2,0,0,1,28,5Z"/><path class="cls-2" d="M51,7H45a2,2,0,0,1,2,2V33a2,2,0,0,1-2,2h6a2,2,0,0,0,2-2V9A2,2,0,0,0,51,7Z"/><path class="cls-3" d="M31,30h0a2,2,0,0,0-2-2H19a2,2,0,0,0-2,2V58a2,2,0,0,0,2,2H54a2,2,0,0,0,2-2V34a2,2,0,0,0-2-2H33A2,2,0,0,1,31,30Z"/><path class="cls-2" d="M22,5a2,2,0,0,0,2,2h6a2,2,0,0,1-2-2,2,2,0,0,0-2-2H20A2,2,0,0,1,22,5Z"/><path class="cls-2" d="M54,32H48a2,2,0,0,1,2,2V58a2,2,0,0,1-2,2h6a2,2,0,0,0,2-2V34A2,2,0,0,0,54,32Z"/><path class="cls-2" d="M25,30a2,2,0,0,0,2,2h6a2,2,0,0,1-2-2,2,2,0,0,0-2-2H23A2,2,0,0,1,25,30Z"/><path class="cls-4" d="M44.83,47.94c-1.61,2-4.52,4.52-7.84,4.52S30.82,50,29.2,48Z"/><circle class="cls-5" cx="44" cy="41" r="2"/><circle class="cls-5" cx="29" cy="41" r="2"/><circle class="cls-6" cx="25" cy="45" r="2"/><circle class="cls-6" cx="48" cy="45" r="2"/><path class="cls-7" d="M14.5,37A8.51,8.51,0,0,1,6,28.5v-3a8.5,8.5,0,0,1,17,0v3A8.51,8.51,0,0,1,14.5,37Zm0-16A4.51,4.51,0,0,0,10,25.5v3a4.5,4.5,0,0,0,9,0v-3A4.51,4.51,0,0,0,14.5,21Z"/><path class="cls-7" d="M7.13,32.77A5.18,5.18,0,0,0,10,36v2.5a4.5,4.5,0,0,0,9,0v-3A4.51,4.51,0,0,0,14.5,31a4.43,4.43,0,0,0-2.82,1c-2.33-2-1.12-4-1.12-4a8.41,8.41,0,0,1,3.94-1A8.51,8.51,0,0,1,23,35.5v3a8.5,8.5,0,0,1-17,0v-3a5.91,5.91,0,0,1,.79-3.1"/></g></svg>