<svg xmlns="http://www.w3.org/2000/svg" viewBox="0 0 64 64"><defs><style>.cls-1{fill:#8065c4;}.cls-1,.cls-2,.cls-3,.cls-6,.cls-7{stroke:#54596e;stroke-linecap:round;stroke-linejoin:round;stroke-width:2px;}.cls-2{fill:#ffd578;}.cls-3,.cls-5{fill:#54596e;}.cls-4{fill:#ff927d;}.cls-6{fill:#fff35f;}.cls-7{fill:#fff;}.cls-8{fill:#999;}</style></defs><title>mobile</title><g id="mobile"><path class="cls-1" d="M16.14,5H49.86A3.14,3.14,0,0,1,53,8.14V52a0,0,0,0,1,0,0H13a0,0,0,0,1,0,0V8.14A3.14,3.14,0,0,1,16.14,5Z"/><circle class="cls-2" cx="18" cy="32" r="3"/><circle class="cls-2" cx="48" cy="32" r="3"/><rect class="cls-2" x="29" y="45" width="8" height="7"/><path class="cls-2" d="M33,48h0A14,14,0,0,1,19,34V16l28,5V34A14,14,0,0,1,33,48Z"/><path class="cls-3" d="M28,35a5,5,0,0,0,10,0Z"/><ellipse class="cls-4" cx="33" cy="38" rx="2" ry="1"/><circle class="cls-5" cx="26.5" cy="27.5" r="1.5"/><circle class="cls-5" cx="39.5" cy="27.5" r="1.5"/><path class="cls-6" d="M16,10H47a0,0,0,0,1,0,0V21a0,0,0,0,1,0,0H27A11,11,0,0,1,16,10v0A0,0,0,0,1,16,10Z"/><path class="cls-7" d="M13,52H53a0,0,0,0,1,0,0v4.86A3.14,3.14,0,0,1,49.86,60H16.14A3.14,3.14,0,0,1,13,56.86V52A0,0,0,0,1,13,52Z"/><circle class="cls-8" cx="33" cy="56" r="2"/></g></svg>