<svg xmlns="http://www.w3.org/2000/svg" viewBox="0 0 64 64"><defs><style>.cls-1{fill:#ffd578;}.cls-1,.cls-2,.cls-4{stroke:#54596e;stroke-linecap:round;stroke-linejoin:round;stroke-width:2px;}.cls-2{fill:#bfad88;}.cls-3{fill:#54596e;}.cls-4{fill:none;}</style></defs><title>monkey-silent</title><g id="monkey-silent"><circle class="cls-1" cx="53" cy="22" r="9"/><circle class="cls-1" cx="11" cy="22" r="9"/><path class="cls-2" d="M29,4h6A19,19,0,0,1,54,23V36A22,22,0,0,1,32,58h0A22,22,0,0,1,10,36V23A19,19,0,0,1,29,4Z"/><path class="cls-1" d="M43.1,34.45a6.5,6.5,0,1,0-9-7.25,11.44,11.44,0,0,0-4.26,0,6.5,6.5,0,1,0-9,7.25c-.11.26-.2.53-.29.8a15,15,0,1,0,22.78,0C43.3,35,43.21,34.71,43.1,34.45Z"/><circle class="cls-3" cx="23.5" cy="28.5" r="1.5"/><circle class="cls-3" cx="40.5" cy="28.5" r="1.5"/><ellipse class="cls-3" cx="29.5" cy="38" rx="1.5" ry="2"/><ellipse class="cls-3" cx="34.5" cy="38" rx="1.5" ry="2"/><path class="cls-4" d="M25,38h0a4,4,0,0,1,4-4h6a4,4,0,0,1,4,4"/><line class="cls-4" x1="28" y1="47" x2="36" y2="53"/><line class="cls-4" x1="36" y1="47" x2="28" y2="53"/></g></svg>