<svg xmlns="http://www.w3.org/2000/svg" viewBox="0 0 64 64"><defs><style>.cls-1{fill:#ffb8f2;}.cls-1,.cls-2,.cls-4,.cls-5{stroke:#54596e;stroke-linecap:round;stroke-linejoin:round;stroke-width:2px;}.cls-2,.cls-3{fill:#54596e;}.cls-2{opacity:0.2;}.cls-4{fill:#ffd578;}.cls-5{fill:none;}</style></defs><title>pig</title><g id="pig"><ellipse class="cls-1" cx="11.13" cy="11.16" rx="5.02" ry="8.01" transform="translate(-4.6 12.11) rotate(-48.54)"/><ellipse class="cls-1" cx="52.13" cy="11.16" rx="8.01" ry="5.02" transform="translate(5.68 37.31) rotate(-41.46)"/><path class="cls-1" d="M58,37C58,22.64,46.36,8,32,8S6,22.64,6,37,17.64,60,32,60,58,51.36,58,37Z"/><path class="cls-2" d="M32,53C18.83,53,8,45.73,6.24,33.44A28.26,28.26,0,0,0,6,37C6,51.36,17.64,60,32,60s26-8.64,26-23a28.26,28.26,0,0,0-.24-3.56C56.05,45.73,45.17,53,32,53Z"/><circle class="cls-3" cx="22" cy="27" r="2"/><rect class="cls-4" x="21" y="36" width="22" height="15" rx="6.54" ry="6.54"/><circle class="cls-3" cx="41" cy="27" r="2"/><ellipse class="cls-3" cx="27.5" cy="43.5" rx="1.5" ry="2.5"/><ellipse class="cls-3" cx="36.5" cy="43.5" rx="1.5" ry="2.5"/><path class="cls-5" d="M49,44a9,9,0,0,0,9-9"/><path class="cls-5" d="M6,35a9,9,0,0,0,9,9"/></g></svg>