<svg xmlns="http://www.w3.org/2000/svg" viewBox="0 0 64 64"><defs><style>.cls-1{fill:#fff;}.cls-1,.cls-3,.cls-5,.cls-6,.cls-7{stroke:#54596e;stroke-width:2px;}.cls-1,.cls-3,.cls-6,.cls-7{stroke-linecap:round;stroke-linejoin:round;}.cls-2,.cls-4,.cls-5{fill:#54596e;}.cls-2{opacity:0.2;}.cls-3{fill:none;}.cls-5{stroke-miterlimit:10;}.cls-6{fill:#a1b7ff;}.cls-7{fill:#fff35f;}</style></defs><title>planets</title><g id="planets"><circle class="cls-1" cx="32" cy="37" r="20"/><path class="cls-2" d="M46.37,23.1A20,20,0,0,1,14.63,46.9,20,20,0,1,0,46.37,23.1Z"/><path class="cls-3" d="M11.73,39.28C5.06,40.68.88,42.05,1,43c.21,1.64,14.26,1.2,31.38-1S63.21,36.68,63,35c-.11-.9-4.37-1.18-11-.88"/><circle class="cls-4" cx="20.5" cy="32.5" r="1.5"/><circle class="cls-4" cx="38.5" cy="30.5" r="1.5"/><path class="cls-5" d="M26.77,36.6a3,3,0,0,0,5.89-1.15Z"/><circle class="cls-6" cx="9" cy="11" r="6"/><circle class="cls-7" cx="45" cy="40" r="4"/></g></svg>