<svg xmlns="http://www.w3.org/2000/svg" viewBox="0 0 64 64"><defs><style>.cls-1{fill:#61c5a8;}.cls-1,.cls-2,.cls-3,.cls-4{stroke:#54596e;stroke-linecap:round;stroke-linejoin:round;stroke-width:2px;}.cls-2{fill:none;}.cls-3{fill:#a1b7ff;}.cls-4,.cls-5{fill:#9af43b;}</style></defs><title>potion</title><g id="potion"><ellipse class="cls-1" cx="44.84" cy="9.76" rx="10.8" ry="7" transform="translate(6.23 34.56) rotate(-45)"/><polyline class="cls-2" points="33.52 21.07 46.96 7.64 46.16 1.53"/><line class="cls-2" x1="50.49" y1="14" x2="41.93" y2="12.67"/><ellipse class="cls-1" cx="24.94" cy="9.76" rx="7" ry="10.8" transform="translate(0.4 20.49) rotate(-45)"/><polyline class="cls-2" points="36.25 21.07 22.82 7.64 23.61 1.53"/><line class="cls-2" x1="19.28" y1="14" x2="27.84" y2="12.67"/><path class="cls-3" d="M52.75,58,40,35V25a2,2,0,0,0,0-4H30a2,2,0,0,0,0,4V35L17.25,58a2.72,2.72,0,0,0,2.38,4H50.37A2.72,2.72,0,0,0,52.75,58Z"/><line class="cls-2" x1="36" y1="25" x2="40" y2="25"/><path class="cls-4" d="M19.63,62H50.37a2.72,2.72,0,0,0,2.38-4L45.12,44.21C41.32,43.88,37.2,43,34,41a14.42,14.42,0,0,0-6.15-2.12L17.25,58A2.72,2.72,0,0,0,19.63,62Z"/><path class="cls-2" d="M29.86,56.07A7,7,0,0,0,35,58a7,7,0,0,0,5.1-1.9"/><path class="cls-2" d="M40,50.5a2,2,0,0,1,4,0"/><path class="cls-2" d="M26,50.5a2,2,0,0,1,4,0"/><circle class="cls-5" cx="37.5" cy="38.5" r="1.5"/><circle class="cls-5" cx="33.5" cy="30.5" r="1.5"/></g></svg>