<svg xmlns="http://www.w3.org/2000/svg" viewBox="0 0 64 64"><defs><style>.cls-1,.cls-5{fill:#54596e;}.cls-1{opacity:0.1;}.cls-2{fill:#fff35f;stroke-linejoin:round;}.cls-2,.cls-3{stroke:#54596e;stroke-linecap:round;stroke-width:2px;}.cls-3{fill:none;stroke-miterlimit:10;}.cls-4{fill:#f9bbed;}</style></defs><title>topview</title><g id="topview"><ellipse class="cls-1" cx="32" cy="59" rx="18" ry="3"/><path class="cls-2" d="M60,29C60,13.5,47.46,2,32,2S4,13.5,4,29,16.54,58,32,58,60,44.43,60,29Z"/><path class="cls-1" d="M32,50C18.28,50,7,38.91,5.23,25.52A26.42,26.42,0,0,0,5,29C5,43.91,17.09,57,32,57S59,43.91,59,29a26.42,26.42,0,0,0-.23-3.48C57.05,38.91,45.72,50,32,50Z"/><path class="cls-3" d="M19,45.13C21.54,48.05,26.17,50,31.47,50s10-2,12.55-5"/><ellipse class="cls-4" cx="15" cy="39" rx="5" ry="2"/><ellipse class="cls-4" cx="49" cy="39" rx="5" ry="2"/><circle class="cls-5" cx="41" cy="32" r="2"/><circle class="cls-5" cx="23" cy="32" r="2"/></g></svg>