<svg xmlns="http://www.w3.org/2000/svg" viewBox="0 0 64 64"><defs><style>.cls-1{fill:#a1b7ff;}.cls-1,.cls-2,.cls-3,.cls-4{stroke:#54596e;stroke-linecap:round;stroke-linejoin:round;stroke-width:2px;}.cls-2{fill:#55a6ff;}.cls-3{fill:#fff;}.cls-4{fill:#fff35f;}.cls-5{fill:#54596e;opacity:0.1;}</style></defs><title>vision-jew</title><g id="vision-jew"><path class="cls-1" d="M25,6h0a5,5,0,0,1,5,5V37a0,0,0,0,1,0,0H20a0,0,0,0,1,0,0V11A5,5,0,0,1,25,6Z"/><path class="cls-1" d="M41,6h0a5,5,0,0,1,5,5V37a0,0,0,0,1,0,0H36a0,0,0,0,1,0,0V11A5,5,0,0,1,41,6Z"/><path class="cls-2" d="M56,31.08a11,11,0,0,0-17.66-4.21l-.34-.1V7A5,5,0,0,0,28,7V26.78l-.53.16A11,11,0,0,0,9.73,31.08,11,11,0,0,1,16,41v1a7.22,7.22,0,0,0,0,1,17,17,0,0,0,34,0V40A10.37,10.37,0,0,1,56,31.08Z"/><path class="cls-3" d="M44,42s-4.92-7-11-7-11,7-11,7,4.92,7,11,7S44,42,44,42Z"/><circle class="cls-4" cx="33" cy="42" r="7"/><circle class="cls-2" cx="33" cy="42" r="2"/><ellipse class="cls-5" cx="33" cy="60.5" rx="12" ry="2.5"/></g></svg>