<svg xmlns="http://www.w3.org/2000/svg" viewBox="0 0 64 64"><defs><style>.cls-1{fill:#9af43b;}.cls-1,.cls-2,.cls-3,.cls-4{stroke:#54596e;stroke-linecap:round;stroke-linejoin:round;stroke-width:2px;}.cls-2{fill:none;}.cls-3{fill:#fff;}.cls-4{fill:#999;}</style></defs><title>android</title><g id="android"><path class="cls-1" d="M7,27h5a0,0,0,0,1,0,0v8a0,0,0,0,1,0,0H7a4,4,0,0,1-4-4v0A4,4,0,0,1,7,27Z"/><path class="cls-1" d="M58,27h5a0,0,0,0,1,0,0v8a0,0,0,0,1,0,0H58a4,4,0,0,1-4-4v0a4,4,0,0,1,4-4Z" transform="translate(117 62) rotate(180)"/><rect class="cls-1" x="8" y="16" width="50" height="30" rx="13" ry="13"/><line class="cls-2" x1="33" y1="10" x2="33" y2="16"/><circle class="cls-1" cx="33" cy="6" r="4"/><circle class="cls-3" cx="40" cy="30" r="7"/><circle class="cls-3" cx="26" cy="30" r="7"/><line class="cls-2" x1="40" y1="27" x2="40" y2="33"/><line class="cls-2" x1="26" y1="27" x2="26" y2="33"/><path class="cls-2" d="M29.54,40a4,4,0,0,0,6.92,0"/><rect class="cls-4" x="26" y="46" width="14" height="5"/><rect class="cls-1" x="26" y="51" width="14" height="5"/><rect class="cls-4" x="26" y="56" width="14" height="5"/></g></svg>