<svg xmlns="http://www.w3.org/2000/svg" viewBox="0 0 64 64"><defs><style>.cls-1{fill:#ff927d;}.cls-1,.cls-2,.cls-3{stroke:#54596e;stroke-linecap:round;stroke-linejoin:round;stroke-width:2px;}.cls-2{fill:#999;}.cls-3{fill:none;}.cls-4{fill:#54596e;}.cls-5{fill:#ffb8f2;}</style></defs><title>basket</title><g id="basket"><rect class="cls-1" x="6" y="6" width="54" height="37"/><rect class="cls-2" x="19" y="33" width="28" height="4"/><polygon class="cls-3" points="43 62 37.98 59 33 62 27.86 59 23 62 22 37 44 37 43 62"/><line class="cls-3" x1="22" y1="37" x2="43" y2="58"/><line class="cls-3" x1="28" y1="37" x2="43.38" y2="52.38"/><line class="cls-3" x1="22" y1="43" x2="38" y2="59"/><line class="cls-3" x1="34.09" y1="37.09" x2="43.62" y2="46.62"/><line class="cls-3" x1="22.5" y1="49.5" x2="34" y2="61"/><line class="cls-3" x1="40" y1="37" x2="43.54" y2="40.54"/><line class="cls-3" x1="23" y1="56" x2="26.71" y2="59.71"/><line class="cls-3" x1="43.62" y1="37" x2="22.92" y2="57.7"/><line class="cls-3" x1="37.62" y1="37" x2="22.71" y2="51.91"/><line class="cls-3" x1="43.62" y1="43" x2="27.62" y2="59"/><line class="cls-3" x1="31.52" y1="37.09" x2="22.58" y2="46.03"/><line class="cls-3" x1="43.12" y1="49.5" x2="31.62" y2="61"/><line class="cls-3" x1="25.62" y1="37" x2="22.32" y2="40.3"/><line class="cls-3" x1="42.62" y1="56" x2="39.09" y2="59.52"/><path class="cls-3" d="M27.86,25.07A7,7,0,0,0,33,27a7,7,0,0,0,5.1-1.9Z"/><circle class="cls-4" cx="21" cy="15" r="2"/><circle class="cls-4" cx="45" cy="15" r="2"/><circle class="cls-5" cx="46" cy="21" r="2"/><circle class="cls-5" cx="20" cy="21" r="2"/></g></svg>