<svg xmlns="http://www.w3.org/2000/svg" viewBox="0 0 64 64"><defs><style>.cls-1{fill:#fff35f;}.cls-1,.cls-2,.cls-4,.cls-5{stroke:#54596e;stroke-linecap:round;stroke-linejoin:round;stroke-width:2px;}.cls-2{fill:none;}.cls-3{fill:#54596e;}.cls-4{fill:#fff;}.cls-5{fill:#55a6ff;}.cls-6{fill:#a1b7ff;opacity:0.5;}</style></defs><title>bee</title><g id="bee"><path class="cls-1" d="M48.82,29.47A2.47,2.47,0,0,1,47,27v0a16,16,0,0,0-31.95-1.27c-.68,8.77,3.75,33,29,35.27,11,1,16.34-6.8,17-14.73A16,16,0,0,0,48.82,29.47Z"/><path class="cls-2" d="M9,6s10-6,17,5.81"/><path class="cls-2" d="M23.88,12.69S13,4,4,13"/><circle class="cls-3" cx="8" cy="6" r="2"/><circle class="cls-3" cx="3" cy="13" r="2"/><circle class="cls-4" cx="32" cy="26" r="5"/><circle class="cls-4" cx="22" cy="26" r="5"/><path class="cls-2" d="M20,26a2,2,0,0,0,4,0"/><path class="cls-2" d="M30,26a2,2,0,0,0,4,0"/><path class="cls-5" d="M23,51.5a1.5,1.5,0,0,1-.24-3c.24,0,24.09-4,27.79-17.91a1.5,1.5,0,1,1,2.9.78C49.25,47.15,24.3,51.31,23.24,51.48Z"/><path class="cls-5" d="M30,57.5h-.09A1.53,1.53,0,0,1,28.28,56c0-.91.54-1.45,1.7-1.61A34.78,34.78,0,0,0,56.66,35.33a1.5,1.5,0,1,1,2.68,1.34A37.73,37.73,0,0,1,30.63,57.36,1.46,1.46,0,0,1,30,57.5Z"/><path class="cls-1" d="M30.79,36A6.77,6.77,0,0,0,27,35a6.52,6.52,0,0,0-4,1.2"/><path class="cls-6" d="M57.71,21.45c3-3,3.77-7,1.79-8.95s-6-1.18-9,1.79-1.79,9-1.79,9S54.74,24.42,57.71,21.45Z"/><path class="cls-6" d="M55.39,25.86c3.56-.64,6.11-3.09,5.68-5.47s-3.67-3.78-7.23-3.14-5.69,5.47-5.69,5.47S51.82,26.5,55.39,25.86Z"/></g></svg>