<svg xmlns="http://www.w3.org/2000/svg" viewBox="0 0 64 64"><defs><style>.cls-1{fill:#9af43b;}.cls-1,.cls-2,.cls-3,.cls-5{stroke:#54596e;stroke-width:2px;}.cls-1,.cls-2,.cls-3{stroke-linecap:round;stroke-linejoin:round;}.cls-2{fill:#ffd578;}.cls-3{fill:#ff927d;}.cls-4{fill:#55a6ff;}.cls-5{fill:none;stroke-miterlimit:10;}</style></defs><title>boat</title><g id="boat"><path class="cls-1" d="M23,38H18.82a2.39,2.39,0,0,1-2.36-2.78L20.67,18A2.38,2.38,0,0,1,23,16h4.16a2.39,2.39,0,0,1,2.36,2.78L25.33,36A2.38,2.38,0,0,1,23,38Z"/><path class="cls-2" d="M20,35l11.36-6a2,2,0,0,1,2.32.38L39,35Z"/><polygon class="cls-3" points="56 47 3 47 3 35 63 35 56 47"/><circle class="cls-2" cx="28" cy="8" r="5"/><line class="cls-2" x1="47" y1="13" x2="33" y2="48"/><path class="cls-4" d="M62,46a6,6,0,0,1-6-6,6,6,0,0,1-12,0,6,6,0,0,1-12,0,6,6,0,0,1-12,0A6,6,0,0,1,8,40a6,6,0,0,1-6,6V56H62Z"/><path class="cls-5" d="M62,46a6,6,0,0,1-6-6,6,6,0,0,1-12,0,6,6,0,0,1-12,0,6,6,0,0,1-12,0A6,6,0,0,1,8,40a6,6,0,0,1-6,6"/><rect class="cls-2" x="26" y="16" width="22" height="4" rx="2" ry="2"/></g></svg>