<svg xmlns="http://www.w3.org/2000/svg" viewBox="0 0 64 64"><defs><style>.cls-1{fill:#f99;}.cls-1,.cls-2{stroke:#54596e;stroke-linecap:round;stroke-linejoin:round;stroke-width:2px;}.cls-2{fill:#9af43b;}.cls-3{opacity:0.1;}.cls-4{fill:#54596e;}.cls-5{fill:#61c5a8;}.cls-6{fill:#ff927d;}</style></defs><title>chat</title><g id="chat"><path class="cls-1" d="M35,8C20.09,8,8,17.4,8,29c0,6.39,3.68,12.11,9.47,16L15,53l8.26-5.08A33.5,33.5,0,0,0,35,50c14.91,0,27-9.4,27-21S49.91,8,35,8Z"/><path class="cls-2" d="M29,12C14.09,12,2,21.4,2,33c0,6.39,3.68,12.11,9.47,16L9,57l8.26-5.08A33.5,33.5,0,0,0,29,54c14.91,0,27-9.4,27-21S43.91,12,29,12Z"/><g class="cls-3"><path class="cls-4" d="M10.81,51.11,9,57l7.28-4.48A33,33,0,0,1,10.81,51.11Z"/><path class="cls-4" d="M30.34,12C41.17,14.76,49,22.67,49,32c0,11.6-12.09,21-27,21-.45,0-.89,0-1.34,0A34.27,34.27,0,0,0,29,54c14.91,0,27-9.4,27-21C56,21.75,44.63,12.57,30.34,12Z"/></g><circle class="cls-4" cx="31" cy="27" r="2"/><circle class="cls-4" cx="14" cy="27" r="2"/><circle class="cls-5" cx="31" cy="32" r="2"/><circle class="cls-5" cx="14" cy="32" r="2"/><ellipse class="cls-4" cx="22" cy="36" rx="4" ry="5"/><ellipse class="cls-6" cx="22" cy="39" rx="2" ry="1"/></g></svg>