<svg xmlns="http://www.w3.org/2000/svg" viewBox="0 0 64 64"><defs><style>.cls-1,.cls-6{fill:#54596e;}.cls-1,.cls-2,.cls-3,.cls-4,.cls-5,.cls-8{stroke:#54596e;}.cls-1,.cls-2,.cls-3,.cls-4,.cls-5,.cls-7,.cls-8{stroke-linecap:round;stroke-linejoin:round;stroke-width:2px;}.cls-2{fill:#fff35f;}.cls-3{fill:#ffb8f2;}.cls-4{fill:#d8d8d8;}.cls-5{fill:#f99;}.cls-7,.cls-8{fill:none;}.cls-7{stroke:#fff;}</style></defs><title>christian-love</title><g id="christian-love"><circle class="cls-1" cx="29" cy="21" r="7"/><path class="cls-2" d="M29,35.5A14.5,14.5,0,1,1,43.5,21,14.51,14.51,0,0,1,29,35.5Zm0-25A10.5,10.5,0,1,0,39.5,21,10.51,10.51,0,0,0,29,10.5Z"/><polygon class="cls-3" points="50 18 32 18 32 3 26 3 26 18 8 18 8 24 26 24 26 61 32 61 32 24 50 24 50 18"/><rect class="cls-4" x="22" y="56" width="14" height="5"/><path class="cls-5" d="M44.08,36.06a8.49,8.49,0,1,0-12,12L44.2,60.2l12-12A8.58,8.58,0,0,0,44.08,36.06Z"/><circle class="cls-6" cx="38.5" cy="41.5" r="1.5"/><circle class="cls-6" cx="49.5" cy="41.5" r="1.5"/><path class="cls-7" d="M37.27,37.25a6,6,0,0,0-4,3.81"/><path class="cls-8" d="M40.24,46.51A5.61,5.61,0,0,0,48,46.37"/><line class="cls-8" x1="55" y1="61" x2="12" y2="61"/></g></svg>