<svg xmlns="http://www.w3.org/2000/svg" viewBox="0 0 64 64"><defs><style>.cls-1{fill:#bfad88;}.cls-1,.cls-2,.cls-5{stroke:#54596e;stroke-linecap:round;stroke-linejoin:round;stroke-width:2px;}.cls-2{fill:#55a6ff;}.cls-3{fill:#54596e;}.cls-4{fill:#ff927d;}.cls-5{fill:none;}</style></defs><title>flag</title><g id="flag"><path class="cls-1" d="M13,11h4a0,0,0,0,1,0,0V59a2,2,0,0,1-2,2h0a2,2,0,0,1-2-2V11A0,0,0,0,1,13,11Z"/><circle class="cls-1" cx="15" cy="8" r="4"/><path class="cls-2" d="M60,41h0c-4.22-1-13-.61-17.12.8l-1.12.39a25.07,25.07,0,0,1-8.08,1.37,25.25,25.25,0,0,1-4.42-.42L17,41V15l11.34,2.08a25.17,25.17,0,0,0,4.5.47,25.32,25.32,0,0,0,8.08-1.35l.23-.07c4.51-1.54,14-2.06,18.73-1.15L60,15,55,26Z"/><circle class="cls-3" cx="28.5" cy="25.5" r="1.5"/><circle class="cls-3" cx="46.5" cy="25.5" r="1.5"/><path class="cls-3" d="M31,31.18c0-1.57,14-1.57,14,0v0C45,33.86,41.87,36,38,36s-7-2.14-7-4.79Z"/><ellipse class="cls-4" cx="37.83" cy="33" rx="3" ry="1"/><line class="cls-5" x1="7" y1="61" x2="37" y2="61"/></g></svg>