<svg xmlns="http://www.w3.org/2000/svg" viewBox="0 0 64 64"><defs><style>.cls-1{fill:#ffb8f2;}.cls-1,.cls-2,.cls-4,.cls-5,.cls-7,.cls-8{stroke:#54596e;stroke-linecap:round;stroke-linejoin:round;stroke-width:2px;}.cls-2{fill:#a1b7ff;}.cls-3{fill:#55a6ff;}.cls-4{fill:none;}.cls-5{fill:#bfad88;}.cls-6{fill:#54596e;}.cls-7{fill:#fff35f;}.cls-8{fill:#ff927d;}</style></defs><title>mirror</title><g id="mirror"><ellipse class="cls-1" cx="42" cy="38" rx="20" ry="24"/><ellipse class="cls-2" cx="42" cy="38" rx="15.83" ry="19"/><path class="cls-3" d="M41.17,38c0-7.24,3.37-13.53,8.33-16.73A13.69,13.69,0,0,0,42,19c-8.74,0-15.83,8.51-15.83,19S33.26,57,42,57a13.69,13.69,0,0,0,7.5-2.27C44.54,51.53,41.17,45.24,41.17,38Z"/><ellipse class="cls-4" cx="42" cy="38" rx="15.83" ry="19"/><path class="cls-5" d="M23,26v4l8.89-3.22a2,2,0,0,0,1.34-2.35h0A2,2,0,0,0,30.7,23Z"/><path class="cls-5" d="M19,17v4l-8.89-3.22a2,2,0,0,1-1.34-2.35h0A2,2,0,0,1,11.3,14Z"/><path class="cls-5" d="M19,36v4l-8.89-3.22a2,2,0,0,1-1.34-2.35h0A2,2,0,0,1,11.3,33Z"/><rect class="cls-5" x="19" y="8" width="4" height="46"/><path class="cls-4" d="M36.86,37.07A7,7,0,0,0,42,39a7,7,0,0,0,5.1-1.9"/><circle class="cls-6" cx="32" cy="32" r="2"/><circle class="cls-6" cx="52" cy="32" r="2"/><circle class="cls-7" cx="21" cy="6" r="3"/><path class="cls-4" d="M11,62s8-1,8-8"/><path class="cls-4" d="M31,62s-8-1-8-8"/><line class="cls-4" x1="19" y1="43" x2="23" y2="43"/><line class="cls-4" x1="19" y1="31" x2="23" y2="31"/><line class="cls-4" x1="19" y1="19" x2="23" y2="19"/><path class="cls-8" d="M13.21,11.2A7,7,0,1,0,3.74,21.51Z"/><rect class="cls-8" x="0.58" y="15.87" width="18" height="3" transform="translate(-9.69 12.68) rotate(-47.44)"/></g></svg>