<svg xmlns="http://www.w3.org/2000/svg" viewBox="0 0 64 64"><defs><style>.cls-1{fill:#ffb8f2;}.cls-1,.cls-5{stroke:#54596e;stroke-linecap:round;stroke-linejoin:round;stroke-width:2px;}.cls-2{fill:#d8d8d8;}.cls-3{fill:#fff;}.cls-4{fill:#54596e;}.cls-5{fill:none;}</style></defs><title>octopus-angry</title><g id="octopus-angry"><path class="cls-1" d="M12.36,57H10a3,3,0,0,1,0-6h2.36A5.65,5.65,0,0,0,18,45.36V40a3,3,0,0,1,6,0v5.36A11.65,11.65,0,0,1,12.36,57Z"/><path class="cls-1" d="M32,63a3,3,0,0,1-3-3V40a3,3,0,0,1,6,0V60A3,3,0,0,1,32,63Z"/><path class="cls-1" d="M32,4h0A19,19,0,0,1,51,23V36.8A2.2,2.2,0,0,1,48.8,39H15.2A2.2,2.2,0,0,1,13,36.8V23A19,19,0,0,1,32,4Z"/><path class="cls-1" d="M46,34V50.36A5.65,5.65,0,0,0,51.64,56H54a3,3,0,0,1,0,6H51.64A11.65,11.65,0,0,1,40,50.36V38"/><path class="cls-1" d="M17,33H5a3,3,0,0,0-3,3H2a3,3,0,0,0,3,3H17"/><circle class="cls-2" cx="56.75" cy="9.25" r="1.75"/><circle class="cls-2" cx="59.75" cy="15.25" r="1.75"/><circle class="cls-2" cx="55.75" cy="28.25" r="2.25"/><circle class="cls-2" cx="9" cy="24" r="1.5"/><circle class="cls-3" cx="18.5" cy="27.5" r="1.5"/><circle class="cls-3" cx="37" cy="10" r="2"/><circle class="cls-2" cx="4.5" cy="13.5" r="2"/><ellipse class="cls-4" cx="34" cy="33" rx="1" ry="2"/><ellipse class="cls-4" cx="30" cy="33" rx="1" ry="2"/><circle class="cls-4" cx="39" cy="22" r="2"/><circle class="cls-4" cx="26" cy="22" r="2"/><path class="cls-5" d="M19,18h0a1.86,1.86,0,0,0,1.68,2H43.32A1.86,1.86,0,0,0,45,18h0"/></g></svg>