<svg xmlns="http://www.w3.org/2000/svg" viewBox="0 0 64 64"><defs><style>.cls-1{fill:#8065c4;}.cls-1,.cls-2,.cls-3,.cls-5,.cls-7{stroke:#54596e;}.cls-1,.cls-2,.cls-3,.cls-5,.cls-6,.cls-7{stroke-linecap:round;stroke-linejoin:round;stroke-width:2px;}.cls-2{fill:#ff927d;}.cls-3{fill:#fff35f;}.cls-4{fill:#54596e;}.cls-5,.cls-6{fill:none;}.cls-6{stroke:#8065c4;}.cls-7{fill:#ffd578;}</style></defs><title>parka</title><g id="parka"><rect class="cls-1" x="22" y="4" width="20" height="7"/><rect class="cls-2" x="14" y="11" width="35" height="50"/><circle class="cls-3" cx="24" cy="30" r="7"/><circle class="cls-4" cx="21" cy="28" r="1"/><circle class="cls-4" cx="27" cy="28" r="1"/><path class="cls-5" d="M21,31.64a4,4,0,0,0,6,0"/><path class="cls-2" d="M14,53,6,50V21c0-5.52,3.58-10,8-10h0Z"/><path class="cls-2" d="M49,53l8-3V21c0-5.52-3.58-10-8-10h0Z"/><line class="cls-6" x1="27" y1="16" x2="27" y2="25"/><line class="cls-6" x1="36" y1="16" x2="36" y2="31"/><path class="cls-2" d="M31,18,15,10a3.49,3.49,0,0,1,2.47-6H26Z"/><path class="cls-2" d="M31.93,18l16-8A3.49,3.49,0,0,0,45.5,4H36.93Z"/><path class="cls-7" d="M37,45H27a5,5,0,0,1-5,5v6H42V50A5,5,0,0,1,37,45Z"/><polygon class="cls-1" points="14 37 6 40 6 30 14 27 14 37"/><polygon class="cls-1" points="49 37 57 40 57 30 49 27 49 37"/><line class="cls-5" x1="10" y1="49" x2="10" y2="51"/><line class="cls-5" x1="53" y1="49" x2="53" y2="51"/></g></svg>