<svg xmlns="http://www.w3.org/2000/svg" viewBox="0 0 64 64"><defs><style>.cls-1,.cls-3{fill:#fff;}.cls-1,.cls-2,.cls-3,.cls-4{stroke:#54596e;stroke-width:2px;}.cls-1,.cls-2,.cls-4{stroke-linecap:round;stroke-linejoin:round;}.cls-2{fill:#aaa;}.cls-3{stroke-miterlimit:10;}.cls-4{fill:none;}.cls-5{fill:#f99;}.cls-6{fill:#54596e;}</style></defs><title>pluger</title><g id="pluger"><path class="cls-1" d="M25.28,56H41.72A7.29,7.29,0,0,0,49,48.72V44a2,2,0,0,0-4,0v4.72A3.28,3.28,0,0,1,41.72,52H25.28A3.28,3.28,0,0,1,22,48.72V27.28A7.29,7.29,0,0,0,14.72,20H3a2,2,0,0,0,0,4H14.72A3.28,3.28,0,0,1,18,27.28V48.72A7.29,7.29,0,0,0,25.28,56Z"/><path class="cls-2" d="M39.5,4h0A2.5,2.5,0,0,1,42,6.5V21a0,0,0,0,1,0,0H37a0,0,0,0,1,0,0V6.5A2.5,2.5,0,0,1,39.5,4Z"/><path class="cls-2" d="M54.5,4h0A2.5,2.5,0,0,1,57,6.5V20a0,0,0,0,1,0,0H52a0,0,0,0,1,0,0V6.5A2.5,2.5,0,0,1,54.5,4Z"/><path class="cls-3" d="M32,20H62a0,0,0,0,1,0,0V38.87A5.13,5.13,0,0,1,56.87,44H37.13A5.13,5.13,0,0,1,32,38.87V20A0,0,0,0,1,32,20Z"/><path class="cls-4" d="M41.86,36.07A7,7,0,0,0,47,38a7,7,0,0,0,5.1-1.9"/><circle class="cls-5" cx="39" cy="32" r="2"/><circle class="cls-5" cx="55" cy="32" r="2"/><circle class="cls-6" cx="54.5" cy="28.5" r="1.5"/><circle class="cls-6" cx="39.5" cy="28.5" r="1.5"/><rect class="cls-2" x="41" y="44" width="12" height="4"/></g></svg>