<svg xmlns="http://www.w3.org/2000/svg" viewBox="0 0 64 64"><defs><style>.cls-1{fill:#54596e;}.cls-2{fill:#999;stroke:#54596e;stroke-linecap:round;stroke-linejoin:round;stroke-width:2px;}</style></defs><title>Predator</title><g id="Predator"><path class="cls-1" d="M21.5,39.69h21L44.6,56H53l-.06-40C52.32,5,42.55,13,32,13h0c-10.55,0-20.32-9-20.94,2L11,56h8.4Z"/><path class="cls-2" d="M63,58H1V49.15a3,3,0,0,1,2.58-2.94L33,41l27.45,5.19A3,3,0,0,1,63,49.12Z"/><path class="cls-2" d="M50,44,39,54H25L14,44V34.73A3.73,3.73,0,0,1,17.73,31H46.27A3.73,3.73,0,0,1,50,34.73Z"/><ellipse class="cls-1" cx="32" cy="26.5" rx="17" ry="16.5"/><path class="cls-2" d="M49,19.5C49,10.39,41.39,4,32,4S15,10.39,15,19.5,22.61,39,32,39,49,28.61,49,19.5Z"/><path class="cls-2" d="M47.07,4a24.79,24.79,0,0,1,.17,2.76c0,10.68-6.82,22.86-15.24,22.86S16.76,17.44,16.76,6.76A24.79,24.79,0,0,1,16.93,4a17.21,17.21,0,0,0-4.86,12.14C12.07,26.82,21,39,32,39S51.93,26.82,51.93,16.14A17.21,17.21,0,0,0,47.07,4Z"/><path class="cls-2" d="M35.12,58H28.88a3.68,3.68,0,0,1-3.68-3.87l.65-12.37A2.93,2.93,0,0,1,28.77,39h6.46a2.93,2.93,0,0,1,2.92,2.76l.65,12.37A3.68,3.68,0,0,1,35.12,58Z"/><path class="cls-1" d="M11,42h3a0,0,0,0,1,0,0V60.5A1.5,1.5,0,0,1,12.5,62h0A1.5,1.5,0,0,1,11,60.5V42A0,0,0,0,1,11,42Z"/><path class="cls-1" d="M16,47h1.37A1.63,1.63,0,0,1,19,48.63V60.5A1.5,1.5,0,0,1,17.5,62h0A1.5,1.5,0,0,1,16,60.5V47A0,0,0,0,1,16,47Z"/><path class="cls-1" d="M51.5,42h0A1.5,1.5,0,0,1,53,43.5V62a0,0,0,0,1,0,0H50a0,0,0,0,1,0,0V43.5A1.5,1.5,0,0,1,51.5,42Z" transform="translate(103 104) rotate(180)"/><path class="cls-1" d="M46.5,47h0A1.5,1.5,0,0,1,48,48.5V60.37A1.63,1.63,0,0,1,46.37,62H45a0,0,0,0,1,0,0V48.5A1.5,1.5,0,0,1,46.5,47Z" transform="translate(93 109) rotate(-180)"/></g></svg>