<svg xmlns="http://www.w3.org/2000/svg" viewBox="0 0 64 64"><defs><style>.cls-1{fill:#d8d8d8;}.cls-1,.cls-2,.cls-3,.cls-4,.cls-5,.cls-6,.cls-7{stroke:#54596e;stroke-linecap:round;stroke-linejoin:round;stroke-width:2px;}.cls-2{fill:#61c5a8;}.cls-3{fill:#ffb8f2;}.cls-4{fill:#a1b7ff;}.cls-5{fill:#ff927d;}.cls-6{fill:none;}.cls-7{fill:#999;}.cls-8{fill:#54596e;}</style></defs><title>search</title><g id="search"><rect class="cls-1" x="40.34" y="35.55" width="3" height="15" transform="translate(-18.18 42.19) rotate(-45)"/><rect class="cls-2" x="49.52" y="45.91" width="7" height="16.62" rx="3.5" ry="3.5" transform="translate(-22.81 53.37) rotate(-45)"/><circle class="cls-3" cx="24.16" cy="24.66" r="21"/><circle class="cls-4" cx="24.16" cy="24.66" r="17.66"/><path class="cls-5" d="M16.42,20H31.58A1.42,1.42,0,0,1,33,21.42V31.5A7.5,7.5,0,0,1,25.5,39h-3A7.5,7.5,0,0,1,15,31.5V21.42A1.42,1.42,0,0,1,16.42,20Z"/><line class="cls-6" x1="24" y1="34" x2="24" y2="20"/><path class="cls-7" d="M32,20c0-4.86-3.58-8.81-8-8.81s-8,4-8,8.81Z"/><circle class="cls-8" cx="21.5" cy="15.5" r="1.5"/><circle class="cls-8" cx="26.5" cy="15.5" r="1.5"/><polyline class="cls-6" points="17 16 13 15 13 11.63"/><polyline class="cls-6" points="31 16 35 15 35 10.72"/></g></svg>