<svg xmlns="http://www.w3.org/2000/svg" viewBox="0 0 64 64"><defs><style>.cls-1{fill:#ffb8f2;}.cls-1,.cls-2,.cls-4,.cls-8{stroke:#54596e;}.cls-1,.cls-2,.cls-4,.cls-5,.cls-6,.cls-7,.cls-8{stroke-linecap:round;stroke-linejoin:round;}.cls-1,.cls-2,.cls-4,.cls-6,.cls-7,.cls-8{stroke-width:2px;}.cls-2{fill:#ffd578;}.cls-3{fill:#54596e;}.cls-4,.cls-5,.cls-6,.cls-7{fill:none;}.cls-5,.cls-6{stroke:#ff927d;}.cls-5{stroke-width:4px;}.cls-7{stroke:#f4a14e;}.cls-8{fill:#61c5a8;}</style></defs><title>short-hair</title><g id="short-hair"><path class="cls-1" d="M50.26,48H20.74C15.91,48,12,51.35,12,55.49V62H58V54.63C58,51,54.54,48,50.26,48Z"/><circle class="cls-2" cx="50" cy="24" r="4"/><circle class="cls-2" cx="20" cy="24" r="4"/><path class="cls-2" d="M31,41h8a0,0,0,0,1,0,0V51a4,4,0,0,1-4,4h0a4,4,0,0,1-4-4V41a0,0,0,0,1,0,0Z"/><path class="cls-2" d="M35,45h0c-8.28,0-15-9.72-15-18V5L50,15V27C50,35.28,43.28,45,35,45Z"/><circle class="cls-3" cx="26.5" cy="22.5" r="1.5"/><circle class="cls-3" cx="43.5" cy="22.5" r="1.5"/><line class="cls-4" x1="35" y1="62" x2="35" y2="59"/><line class="cls-5" x1="34" y1="32" x2="36" y2="32"/><line class="cls-6" x1="31" y1="31" x2="39" y2="31"/><line class="cls-7" x1="18" y1="28" x2="18" y2="31"/><line class="cls-7" x1="52" y1="28" x2="52" y2="31"/><path class="cls-2" d="M12,58h3a4,4,0,0,1,4,4v0a0,0,0,0,1,0,0H12a0,0,0,0,1,0,0V58A0,0,0,0,1,12,58Z"/><path class="cls-2" d="M55,58h3a0,0,0,0,1,0,0v4a0,0,0,0,1,0,0H51a0,0,0,0,1,0,0v0A4,4,0,0,1,55,58Z"/><path class="cls-8" d="M15,1H38A12,12,0,0,1,50,13v3a0,0,0,0,1,0,0H27A12,12,0,0,1,15,4V1A0,0,0,0,1,15,1Z"/><line class="cls-4" x1="49" y1="12" x2="38" y2="12"/><path class="cls-4" d="M27,7h6a5,5,0,0,1,5,5h0"/></g></svg>