<svg xmlns="http://www.w3.org/2000/svg" viewBox="0 0 64 64"><defs><style>.cls-1{fill:#55a6ff;}.cls-1,.cls-2,.cls-3,.cls-4,.cls-7{stroke:#54596e;stroke-linecap:round;stroke-linejoin:round;stroke-width:2px;}.cls-2{fill:#fff35f;}.cls-3,.cls-5{fill:#ffb8f2;}.cls-4{fill:#999;}.cls-6{fill:#54596e;}.cls-7{fill:none;}.cls-8{fill:#ffd578;}</style></defs><title>spray</title><g id="spray"><rect class="cls-1" x="27" y="19" width="26" height="44" rx="2.39" ry="2.39"/><circle class="cls-2" cx="40" cy="40" r="9"/><rect class="cls-3" x="34" y="15" width="12" height="4"/><rect class="cls-4" x="36" y="7" width="8" height="8"/><circle class="cls-5" cx="29.5" cy="9.5" r="1.5"/><circle class="cls-6" cx="37.5" cy="10.5" r="1.5"/><circle class="cls-5" cx="24.5" cy="9.5" r="1.5"/><circle class="cls-5" cx="24.5" cy="4.5" r="1.5"/><circle class="cls-5" cx="24.5" cy="14.5" r="1.5"/><circle class="cls-5" cx="19.5" cy="9.5" r="1.5"/><circle class="cls-5" cx="19.5" cy="4.5" r="1.5"/><circle class="cls-5" cx="19.5" cy="14.5" r="1.5"/><circle class="cls-5" cx="14.5" cy="9.5" r="1.5"/><circle class="cls-5" cx="9.5" cy="9.5" r="1.5"/><circle class="cls-5" cx="14.5" cy="4.5" r="1.5"/><circle class="cls-5" cx="14.5" cy="14.5" r="1.5"/><circle class="cls-5" cx="14.5" cy="19.5" r="1.5"/><path class="cls-7" d="M36,43.28a5.48,5.48,0,0,0,4,1.51,5.49,5.49,0,0,0,4-1.49"/><circle class="cls-8" cx="34" cy="40" r="2"/><circle class="cls-8" cx="46" cy="40" r="2"/><circle class="cls-6" cx="44.5" cy="36.5" r="1.5"/><circle class="cls-6" cx="35.5" cy="36.5" r="1.5"/></g></svg>