<svg xmlns="http://www.w3.org/2000/svg" viewBox="0 0 64 64"><defs><style>.cls-1{fill:#8065c4;}.cls-1,.cls-2,.cls-3,.cls-4,.cls-8{stroke:#54596e;}.cls-1,.cls-2,.cls-3,.cls-4,.cls-6,.cls-7,.cls-8,.cls-9{stroke-linecap:round;stroke-linejoin:round;}.cls-1,.cls-2,.cls-3,.cls-4,.cls-7,.cls-8,.cls-9{stroke-width:2px;}.cls-2,.cls-6,.cls-7,.cls-9{fill:none;}.cls-3{fill:#ffd578;}.cls-4{fill:#fff35f;}.cls-5{fill:#54596e;}.cls-6,.cls-7{stroke:#ff927d;}.cls-6{stroke-width:4px;}.cls-8{fill:#fff;}.cls-9{stroke:#61c5a8;}.cls-10{fill:#ff927d;}</style></defs><title>student-female</title><g id="student-female"><path class="cls-1" d="M47.26,49H17.74C12.91,49,9,52.35,9,56.49V63H55V55.63C55,52,51.54,49,47.26,49Z"/><line class="cls-2" x1="16" y1="59" x2="16" y2="62"/><line class="cls-2" x1="48" y1="59" x2="48" y2="62"/><path class="cls-3" d="M28,42h8a0,0,0,0,1,0,0V52a4,4,0,0,1-4,4h0a4,4,0,0,1-4-4V42A0,0,0,0,1,28,42Z"/><path class="cls-4" d="M46.7,16.82C46.2,10.24,40.41,7,32,7h0c-8.41,0-14.2,3.24-14.7,9.82L13,38.61A4.73,4.73,0,0,0,17.51,44h29A4.73,4.73,0,0,0,51,38.61Z"/><circle class="cls-3" cx="46" cy="27" r="4"/><circle class="cls-3" cx="18" cy="27" r="4"/><path class="cls-3" d="M17,16H47a0,0,0,0,1,0,0V34A15,15,0,0,1,32,49h0A15,15,0,0,1,17,34V16A0,0,0,0,1,17,16Z"/><circle class="cls-5" cx="23.5" cy="27.5" r="1.5"/><circle class="cls-5" cx="40.5" cy="27.5" r="1.5"/><line class="cls-6" x1="31" y1="39" x2="33" y2="39"/><line class="cls-7" x1="28" y1="38" x2="36" y2="38"/><line class="cls-2" x1="32" y1="63" x2="32" y2="56"/><polygon class="cls-8" points="28 57 23 59 22 49 28 49 28 57"/><polygon class="cls-8" points="36 57 41 59 42 49 36 49 36 57"/><rect class="cls-1" x="17" y="7" width="30" height="15"/><polygon class="cls-1" points="32 1 6 7 32 13 58 7 32 1"/><line class="cls-9" x1="54" y1="18" x2="54" y2="8"/><polyline class="cls-9" points="56 21 54 18 52 21"/><circle class="cls-10" cx="40" cy="35" r="1"/><circle class="cls-10" cx="23" cy="36" r="1"/><circle class="cls-10" cx="21" cy="34" r="1"/><circle class="cls-10" cx="25" cy="32" r="1"/><circle class="cls-10" cx="38" cy="32" r="1"/><circle class="cls-10" cx="42" cy="32" r="1"/></g></svg>