<svg xmlns="http://www.w3.org/2000/svg" viewBox="0 0 64 64"><defs><style>.cls-1{fill:#ff80c3;}.cls-1,.cls-2,.cls-3,.cls-4,.cls-5,.cls-6{stroke:#54596e;stroke-width:2px;}.cls-1,.cls-2,.cls-3,.cls-4,.cls-5{stroke-linecap:round;stroke-linejoin:round;}.cls-2{fill:#999;}.cls-3,.cls-8{fill:#ff927d;}.cls-4{fill:#fff;}.cls-5{fill:none;}.cls-6,.cls-7{fill:#54596e;}.cls-6{stroke-miterlimit:10;opacity:0.2;}</style></defs><title>troller</title><g id="troller"><rect class="cls-1" x="13" y="14" width="40" height="44" rx="3.42" ry="3.42"/><path class="cls-2" d="M18,58h4a0,0,0,0,1,0,0v3a2,2,0,0,1-2,2h0a2,2,0,0,1-2-2V58A0,0,0,0,1,18,58Z"/><path class="cls-2" d="M44,58h4a0,0,0,0,1,0,0v3a2,2,0,0,1-2,2h0a2,2,0,0,1-2-2V58A0,0,0,0,1,44,58Z"/><path class="cls-3" d="M20,14H46a0,0,0,0,1,0,0v0A10,10,0,0,1,36,24H30A10,10,0,0,1,20,14v0A0,0,0,0,1,20,14Z"/><rect class="cls-4" x="29" y="24" width="8" height="4"/><rect class="cls-5" x="26" y="1" width="15" height="13"/><line class="cls-5" x1="22" y1="1" x2="45" y2="1"/><line class="cls-6" x1="22" y1="34" x2="44" y2="34"/><line class="cls-6" x1="22" y1="40" x2="44" y2="40"/><line class="cls-6" x1="22" y1="46" x2="44" y2="46"/><line class="cls-6" x1="22" y1="52" x2="44" y2="52"/><path class="cls-7" d="M39,42.27c0-3-11.9-3-11.9,0a5.73,5.73,0,0,0,5.95,5.49A5.73,5.73,0,0,0,39,42.27Z"/><ellipse class="cls-8" cx="33.05" cy="44.5" rx="3.25" ry="1.5"/><circle class="cls-7" cx="24" cy="34" r="2"/><circle class="cls-7" cx="42" cy="34" r="2"/><circle class="cls-8" cx="43" cy="40" r="2"/><circle class="cls-8" cx="23" cy="40" r="2"/></g></svg>