<svg xmlns="http://www.w3.org/2000/svg" viewBox="0 0 64 64"><defs><style>.cls-1{fill:#f3f3f3;}.cls-1,.cls-3,.cls-4,.cls-5{stroke:#54596e;stroke-linecap:round;stroke-linejoin:round;stroke-width:2px;}.cls-2{fill:#54596e;opacity:0.15;}.cls-3{fill:#8065c4;}.cls-4{fill:#bfad88;}.cls-5{fill:#ffd578;}.cls-6{fill:#55a6ff;}</style></defs><title>twitter</title><g id="twitter"><path class="cls-1" d="M43.83,5H5.17A3.17,3.17,0,0,0,2,8.17V35.83A3.17,3.17,0,0,0,5.17,39h22.5L35,46V39h8.83A3.17,3.17,0,0,0,47,35.83V8.17A3.17,3.17,0,0,0,43.83,5Z"/><path class="cls-2" d="M43.83,36H5.17A3.17,3.17,0,0,1,2,32.83v3A3.17,3.17,0,0,0,5.17,39H28l7,7V39h8.83A3.17,3.17,0,0,0,47,35.83v-3A3.17,3.17,0,0,1,43.83,36Z"/><path class="cls-3" d="M58.63,55H52.5V50h-5v5H41.87C39.46,55,37,56.68,37,58.74V62H63V58.32C63,56.48,60.77,55,58.63,55Z"/><path class="cls-4" d="M59,46.5l.5-6.1A7.18,7.18,0,0,0,52.56,33H47.44a7.18,7.18,0,0,0-6.94,7.4l.5,6.1"/><path class="cls-5" d="M46.68,41.94c-5,0-5.68-4.33-5.68.49v4a11.83,11.83,0,0,0,2.76,7A8.23,8.23,0,0,0,50,56a8.23,8.23,0,0,0,6.24-2.5,11.83,11.83,0,0,0,2.76-7v-4C59,37.61,51.65,41.94,46.68,41.94Z"/><path class="cls-6" d="M37,12l-2.82.7A6,6,0,0,0,24,17c-6,0-11-5-11-5a8.76,8.76,0,0,0,2,6H13c0,3,3,5,3,5H14c0,3,5,4,5,4a14.33,14.33,0,0,1-7,2h0A15,15,0,0,0,36,17a5.93,5.93,0,0,0-.68-2.76Z"/></g></svg>