<svg xmlns="http://www.w3.org/2000/svg" viewBox="0 0 64 64"><defs><style>.cls-1{fill:none;}.cls-1,.cls-2{stroke:#54596e;stroke-linecap:round;stroke-linejoin:round;stroke-width:2px;}.cls-2{fill:#ffb8f2;}.cls-3,.cls-4{fill:#54596e;}.cls-3{opacity:0.15;}</style></defs><title>vault</title><g id="vault"><path class="cls-1" d="M58,25c-.19-4.5,7.58-.9,4,4-2.43,3.33-6-1.5-6-1.5"/><rect class="cls-2" x="18" y="42" width="4" height="11"/><rect class="cls-2" x="37" y="42" width="4" height="11"/><path class="cls-2" d="M31,12C18.13,12,7.54,19,6.16,28H1v8H7.43C10.86,43,20.12,48,31,48c13.81,0,25-8.06,25-18S44.81,12,31,12Z"/><path class="cls-3" d="M31,41C20.12,41,10.86,36,7.43,29H1v7H7.43C10.86,43,20.12,48,31,48c13.81,0,25-8.06,25-18a13.2,13.2,0,0,0-.48-3.5C53.26,34.77,43.14,41,31,41Z"/><circle class="cls-4" cx="15.5" cy="23.5" r="1.5"/><path class="cls-2" d="M16,17V10.48a1,1,0,0,1,1.76-.72L23,15"/><path class="cls-2" d="M43.12,19.49C40.7,17.4,36.18,16,31,16a26.15,26.15,0,0,0-6.07.69"/></g></svg>